<svg width="162" height="48" viewBox="0 0 162 48" fill="none" xmlns="http://www.w3.org/2000/svg">
<g clip-path="url(#clip0_4_346)">
<path fill-rule="evenodd" clip-rule="evenodd" d="M40.9641 7.03592C36.6257 2.68366 30.6327 0 24 0C17.3673 0 11.3743 2.68366 7.03592 7.03592C2.68366 11.3743 0 17.3673 0 24C0 30.6327 2.68366 36.6257 7.03592 40.9641C11.3743 45.3024 17.3812 48 24 48C30.6327 48 36.6257 45.3163 40.9641 40.9641C45.3024 36.6257 48 30.6188 48 24C48 17.3673 45.3163 11.3743 40.9641 7.03592Z" fill="#404C75"/>
<path fill-rule="evenodd" clip-rule="evenodd" d="M24 0.945557C30.3685 0.945557 36.1251 3.53188 40.3106 7.70338C44.482 11.8749 47.0684 17.6454 47.0684 24.0139C47.0684 30.3824 44.482 36.1391 40.3106 40.3245C36.1391 44.496 30.3685 47.0823 24 47.0823C17.6315 47.0823 11.8749 44.496 7.68946 40.3245C3.51797 36.153 0.931641 30.3824 0.931641 24.0139C0.931641 17.6454 3.51797 11.8888 7.68946 7.70338C11.8749 3.51798 17.6315 0.945557 24 0.945557Z" fill="#C9C069"/>
<path fill-rule="evenodd" clip-rule="evenodd" d="M36.6257 11.3743C33.3998 8.14831 28.9363 6.146 24 6.146C19.0637 6.146 14.6002 8.14831 11.3743 11.3743C8.14831 14.6002 6.146 19.0637 6.146 24C6.146 28.9363 8.14831 33.3998 11.3743 36.6257C14.6002 39.8517 19.0637 41.854 24 41.854C28.9363 41.854 33.3998 39.8517 36.6257 36.6257C39.8517 33.3998 41.854 28.9363 41.854 24C41.854 19.0637 39.8656 14.6002 36.6257 11.3743Z" fill="#404C75"/>
<path fill-rule="evenodd" clip-rule="evenodd" d="M36.6257 11.3743C35.6106 10.3592 34.4843 9.46931 33.2468 8.71844L6.29895 26.3361C6.82734 30.3268 8.6628 33.9143 11.3743 36.6257C14.6002 39.8517 19.0637 41.854 24 41.854C24.3893 41.854 24.7648 41.8401 25.1402 41.8123L39.0174 14.3222C38.3221 13.2654 37.5295 12.2642 36.6257 11.3743Z" fill="#5D72A7"/>
<path fill-rule="evenodd" clip-rule="evenodd" d="M10.6373 20.9548C11.4438 21.3303 11.7636 22.5956 11.6384 24.1669C11.4299 26.781 11.9861 30.1599 15.2676 31.8285C14.7392 29.9653 12.5701 29.4369 13.9049 26.7532C14.0579 27.4485 14.2248 27.4346 14.3916 27.7405C17.701 33.7613 23.1379 30.9664 23.8053 40.241C21.4693 36.5562 15.1842 35.3743 12.3059 32.3152C10.1228 30.007 9.16335 26.934 10.234 22.4149C10.3453 21.9421 10.5121 21.7057 10.6373 20.9548Z" fill="white"/>
<path fill-rule="evenodd" clip-rule="evenodd" d="M25.0011 20.2039C15.949 16.9224 15.3233 25.9328 22.4148 32.5377C17.4368 30.883 11.3325 23.9166 15.4623 18.4797C18.9942 14.489 22.7346 16.8946 25.0011 20.2039Z" fill="white"/>
<path fill-rule="evenodd" clip-rule="evenodd" d="M24.9316 22.2758C31.8702 20.7045 32.7741 27.6153 25.7381 32.6489C31.1889 31.175 35.5133 25.7659 32.1622 21.3581C30.1043 19.0776 26.7532 19.606 24.9316 22.2758Z" fill="white"/>
<path fill-rule="evenodd" clip-rule="evenodd" d="M21.6639 10.3036C23.1935 10.3036 24.4449 11.5411 24.4449 13.0846C24.4449 14.6141 23.2074 15.8656 21.6639 15.8656C20.1344 15.8656 18.8829 14.628 18.8829 13.0846C18.8968 11.555 20.1344 10.3036 21.6639 10.3036Z" fill="white"/>
<path fill-rule="evenodd" clip-rule="evenodd" d="M28.4079 14.934C29.5898 14.934 30.5353 15.8934 30.5353 17.0614C30.5353 18.2433 29.5759 19.1889 28.4079 19.1889C27.2259 19.1889 26.2804 18.2294 26.2804 17.0614C26.2804 15.8795 27.2259 14.934 28.4079 14.934Z" fill="white"/>
<path fill-rule="evenodd" clip-rule="evenodd" d="M21.5805 23.9583C21.1634 27.4207 22.4704 30.7022 24.1946 32.9131C24.3615 29.1032 25.5156 25.9606 27.365 24.153C26.0857 24.6953 24.5701 25.8216 23.708 28.1715C22.818 27.3372 22.387 26.6976 21.5805 23.9583Z" fill="white"/>
<path fill-rule="evenodd" clip-rule="evenodd" d="M23.9305 23.6385C24.4311 23.7636 24.737 24.3337 24.584 24.9038C24.445 25.4878 23.9166 25.8494 23.416 25.7242C22.9154 25.5991 22.6095 25.029 22.7625 24.4589C22.9015 23.8888 23.4299 23.5133 23.9305 23.6385Z" fill="white"/>
<path fill-rule="evenodd" clip-rule="evenodd" d="M37.5573 20.9548C36.7508 21.3303 36.431 22.5956 36.5561 24.1669C36.7647 26.781 36.2085 30.1599 32.9269 31.8285C33.4553 29.9653 35.6245 29.4369 34.2896 26.7532C34.1367 27.4485 33.9698 27.4346 33.803 27.7405C30.4936 33.7613 25.0567 30.9664 24.3893 40.241C26.7253 36.5562 33.0104 35.3743 35.8887 32.3152C38.0718 30.007 39.0312 26.934 37.9605 22.4149C37.8493 21.9421 37.6824 21.7057 37.5573 20.9548Z" fill="white"/>
<path d="M42.2572 16.0047L43.314 15.518L43.4113 15.7405C43.5782 15.6709 43.6755 15.6153 43.8285 15.5458C43.6894 15.2399 43.5504 14.934 43.3974 14.6142C43.2306 14.6837 43.1332 14.7393 42.9803 14.8088L43.0776 15.0313L42.0208 15.518L41.9096 15.2816C41.7427 15.3511 41.6454 15.4067 41.4785 15.4763C41.6315 15.7961 41.7706 16.1159 41.9235 16.4357C42.0904 16.3662 42.1877 16.3106 42.3546 16.241L42.2572 16.0047ZM41.3812 13.8772C41.2978 13.7242 41.2144 13.5852 41.1309 13.4183C40.3244 13.8494 41.1587 15.3372 41.9374 14.9062C42.3963 14.6559 42.2433 14.2665 42.0904 13.8911C42.0208 13.7103 41.9652 13.5574 42.1182 13.5018C42.3407 13.4044 42.6327 13.8772 42.3963 14.0162C42.4797 14.1692 42.5492 14.2943 42.6466 14.4612C43.4392 14.0302 42.6605 12.6118 41.8818 13.0568C41.4925 13.2793 41.4925 13.613 41.6871 14.0302C41.7845 14.2248 41.8401 14.3778 41.7149 14.4473C41.4646 14.5724 41.1448 14.0023 41.3812 13.8772ZM40.5747 12.4728L40.2966 12.0835L40.8806 11.9583L40.5747 12.4728ZM40.1576 13.1402L40.4635 13.5713L40.533 13.5296L41.6454 11.569L41.5064 11.3882L39.2955 11.8054L39.2259 11.8471L39.5319 12.2781L39.8239 12.2225L40.2966 12.8899L40.1576 13.1402ZM38.2387 10.7208L38.8366 10.1924C38.8783 10.248 38.92 10.2897 38.9757 10.3453L38.6697 11.2213L39.0591 11.6663L39.1286 11.6107L39.4484 10.5817C39.9212 10.7208 40.2132 10.4566 40.533 10.1785C40.4079 10.0394 40.2966 9.90037 40.1715 9.76132C39.8795 10.0116 39.5875 10.3036 39.2398 9.90037L39.212 9.87256L39.81 9.35808C39.6848 9.21903 39.5736 9.07998 39.4484 8.94093L37.8633 10.3036C38.0023 10.4427 38.1135 10.5817 38.2387 10.7208ZM37.6825 9.49713L38.4612 8.64893L38.6419 8.81579C38.7671 8.67674 38.8366 8.60721 38.9618 8.46816C38.7115 8.23178 38.4612 8.0093 38.2109 7.77291C38.0857 7.89806 38.0162 7.98149 37.8911 8.12054L38.0718 8.2874L37.2932 9.1356L37.0985 8.95484C36.9733 9.07998 36.9038 9.16341 36.7787 9.30246C37.0429 9.53885 37.2932 9.77523 37.5573 10.0255C37.6825 9.88647 37.752 9.80304 37.8772 9.67789L37.6825 9.49713ZM37.2375 7.00814C37.0985 6.8969 36.9455 6.78566 36.8065 6.68832L35.5411 8.35692C35.8748 8.60721 36.2364 8.88531 36.5701 9.1356C36.6813 8.99655 36.7509 8.89922 36.8621 8.74626L36.2642 8.2874C36.8065 7.57824 36.584 7.87025 37.2375 7.00814ZM35.3882 6.27117C35.5689 6.39632 35.3743 6.67442 35.2074 6.56318L34.9293 6.38241L35.124 6.09041L35.3882 6.27117ZM35.0405 6.98033C35.2213 7.10547 35.0266 7.39748 34.8459 7.27233L34.4843 7.03595L34.679 6.74394L35.0405 6.98033ZM35.8748 6.79956C36.0695 6.49365 35.9861 6.10431 35.6802 5.90965L34.9293 5.42297L33.7891 7.16109L34.6095 7.70339C34.971 7.93977 35.3186 7.81463 35.5133 7.50872C35.6106 7.35576 35.6385 7.175 35.5411 7.00814C35.6802 6.99423 35.8053 6.8969 35.8748 6.79956ZM32.7323 6.10432C32.5933 6.03479 32.482 5.88184 32.5655 5.72888L33.1773 4.49134C33.0243 4.42181 32.8714 4.33838 32.7184 4.26886L32.0927 5.52031C31.8841 5.93746 32.1344 6.3546 32.5098 6.53537C32.8992 6.73004 33.3719 6.67442 33.5805 6.25727L34.2062 5.00582C34.0533 4.9363 33.9003 4.85287 33.7474 4.76944L33.1356 6.00698C33.0521 6.15993 32.8714 6.15993 32.7323 6.10432ZM30.9942 4.72772L30.6327 4.60258C30.6883 4.43572 30.7717 4.19933 30.8273 4.03247C30.9386 4.07419 31.0776 4.1159 31.1889 4.15762C31.4809 4.26886 31.2723 4.82506 30.9942 4.72772ZM30.2989 5.57593L30.4658 5.07535L30.8273 5.20049C31.7729 5.52031 32.2735 4.06028 31.3279 3.72656C31.0359 3.62923 30.7439 3.53189 30.4519 3.43456C30.2294 4.102 29.993 4.75553 29.7706 5.40907C29.9513 5.45078 30.1321 5.5064 30.2989 5.57593ZM28.3662 4.36619C28.1854 4.32448 28.0463 4.28276 27.8656 4.22714C27.6153 5.11706 29.2561 5.53421 29.4925 4.68601C29.6315 4.18543 29.2561 4.01857 28.8667 3.86561C28.686 3.79609 28.5469 3.72656 28.6025 3.57361C28.686 3.33722 29.2283 3.46237 29.1587 3.72656C29.3395 3.76828 29.4646 3.80999 29.6454 3.86561C29.8957 3.0035 28.3244 2.57245 28.102 3.44846C27.9907 3.89342 28.241 4.1159 28.6721 4.26886C28.8667 4.33838 29.0336 4.40791 28.9919 4.54696C28.9363 4.79725 28.2966 4.63039 28.3662 4.36619ZM27.6431 2.76712C27.1564 2.68369 26.8366 2.62807 26.3499 2.54464C26.2387 3.22598 26.1135 3.92123 26.0023 4.60258C26.4751 4.68601 26.8366 4.74163 27.3233 4.82506C27.3511 4.6721 27.3789 4.50524 27.4067 4.35229C27.1008 4.29667 26.92 4.26886 26.6141 4.21324C26.6419 4.08809 26.6558 3.97685 26.6697 3.85171L27.365 3.97685C27.3928 3.8239 27.4206 3.67094 27.4484 3.50408L26.7532 3.37894L26.8088 3.08693C27.1147 3.14255 27.2677 3.17036 27.5736 3.21208C27.5875 3.07303 27.6153 2.92007 27.6431 2.76712ZM24.8065 3.46237L24.431 3.44846C24.4449 3.2816 24.4449 3.10084 24.4589 2.92007C24.584 2.92007 24.7091 2.93398 24.8343 2.93398C25.1263 2.96179 25.0985 3.47627 24.8065 3.46237ZM25.2236 3.8378C25.7659 3.50408 25.6686 2.50292 24.8482 2.46121C24.5423 2.4473 24.2364 2.4334 23.9305 2.41949C23.9027 3.11474 23.8609 3.80999 23.8331 4.50524C24 4.51915 24.1947 4.51915 24.3615 4.53305L24.3893 3.92123L24.6674 3.93514L25.0011 4.56086L25.5991 4.58867V4.50524L25.2236 3.8378ZM22.2202 4.60258L22.4148 4.57477L22.1228 2.50292C21.9421 2.53073 21.7613 2.55854 21.5805 2.57245L21.7196 3.58751L20.5237 2.7115L20.3291 2.73931L20.6211 4.82506C20.8018 4.79725 20.9826 4.76944 21.1634 4.75553L21.0243 3.74047L22.2202 4.60258ZM18.3546 4.26886C18.1738 3.5458 19.1889 3.2816 19.3696 4.00466C19.5504 4.74163 18.5353 5.00582 18.3546 4.26886ZM19.898 3.87952C19.5365 2.47511 17.4646 3.01741 17.8262 4.40791C18.1738 5.81231 20.2596 5.28392 19.898 3.87952ZM16.2688 4.40791L16.8528 5.90965C17.0197 5.84012 17.1865 5.7845 17.3395 5.71498L16.7555 4.21324L17.2283 4.03247C17.1726 3.87952 17.117 3.74047 17.0475 3.58751L15.6014 4.15762C15.657 4.31057 15.7126 4.44962 15.7821 4.60258L16.2688 4.40791ZM14.7949 6.11822C14.628 6.20165 14.489 6.25727 14.3221 6.3407C14.7115 7.175 16.241 6.42413 15.8517 5.63155C15.6292 5.15878 15.2399 5.28392 14.8366 5.42297C14.6558 5.47859 14.5029 5.52031 14.4473 5.36735C14.3638 5.13097 14.8505 4.86677 14.9757 5.11706C15.1425 5.03363 15.2677 4.97801 15.4345 4.89458C15.0591 4.07419 13.5852 4.76944 13.9884 5.57593C14.1831 5.97917 14.5307 5.99308 14.9478 5.82622C15.1425 5.74279 15.3094 5.70107 15.365 5.82622C15.504 6.0765 14.9061 6.3546 14.7949 6.11822ZM13.8911 6.81347L13.2792 5.84012L13.4878 5.70107C13.3905 5.54812 13.3349 5.45078 13.2375 5.31173C12.9455 5.4925 12.6674 5.67326 12.3754 5.85402C12.4728 6.00698 12.5284 6.09041 12.6257 6.24336L12.8343 6.11822L13.4461 7.09157L13.2236 7.23062C13.321 7.38357 13.3766 7.467 13.4739 7.63386C13.7798 7.43919 14.0718 7.25843 14.3777 7.06376C14.2804 6.9108 14.2248 6.81347 14.1275 6.66051L13.8911 6.81347ZM12.2642 8.46816L11.8053 7.81463C11.8609 7.77291 11.9166 7.7312 11.9722 7.68948L12.8204 8.07882L13.3071 7.7312L13.2653 7.66167L12.2642 7.24452C12.4449 6.78566 12.2086 6.46584 11.9583 6.11822C11.8053 6.22946 11.6524 6.32679 11.5133 6.43803C11.7358 6.75785 12 7.06376 11.555 7.38357L11.5272 7.41138L11.0684 6.77175C10.9154 6.88299 10.7764 6.98033 10.6234 7.09157L11.8192 8.78798C11.9722 8.67674 12.1112 8.5794 12.2642 8.46816ZM9.92815 7.63386C9.58052 7.96758 9.33023 8.20397 8.98261 8.53769C9.46928 9.03827 9.95596 9.53884 10.4426 10.0394C10.7903 9.7057 11.0545 9.45541 11.4021 9.10779C11.2908 8.99655 11.1796 8.87141 11.0684 8.76017C10.8459 8.98265 10.7068 9.10779 10.4983 9.31637C10.4148 9.23294 10.3314 9.1356 10.248 9.05217L10.7624 8.55159C10.6512 8.44035 10.54 8.32911 10.4287 8.20397L9.91424 8.70455L9.70567 8.49597C9.92815 8.2874 10.0394 8.17616 10.2619 7.95368C10.1506 7.87025 10.0394 7.7451 9.92815 7.63386ZM8.32908 9.90037C8.46813 9.73351 8.73232 9.95599 8.59327 10.1229L8.37079 10.3731L8.1066 10.1507L8.32908 9.90037ZM8.98261 10.3453C9.12166 10.1785 9.39976 10.4149 9.26071 10.5678L8.98261 10.8876L8.71842 10.6512L8.98261 10.3453ZM8.91308 9.48322C8.63499 9.24684 8.23174 9.28855 7.99536 9.55275L7.41135 10.2341L8.99651 11.5968L9.63614 10.8598C9.91424 10.54 9.83081 10.1785 9.55271 9.94209C9.41366 9.81694 9.2468 9.77523 9.06604 9.85866C9.07994 9.71961 8.99651 9.56665 8.91308 9.48322ZM7.06372 10.6791L6.10428 11.9444C6.24333 12.0556 6.34066 12.1252 6.47971 12.2364L6.95248 11.6246L7.66164 13.2376L7.73116 13.2932L8.74623 11.9583C8.60718 11.8471 8.50984 11.7775 8.37079 11.6663L7.8424 12.3616L7.14715 10.7486L7.06372 10.6791ZM6.1738 12.6258L6.13209 12.5979L5.58979 12.5145L5.46465 12.9734L5.50636 13.0012L5.96523 12.9317L6.1738 12.6258ZM5.35341 15.4346C4.67207 15.1008 5.14484 14.1553 5.82618 14.489C6.50752 14.8227 6.03475 15.7683 5.35341 15.4346ZM6.06256 14.0023C4.7694 13.3627 3.80996 15.2816 5.10312 15.9212C6.41019 16.5609 7.36963 14.642 6.06256 14.0023Z" fill="white"/>
<path d="M4.49198 23.3326L4.50619 24.1425C4.50619 24.4693 4.40673 24.7392 4.1936 24.9239C3.98048 25.1228 3.72472 25.2223 3.42635 25.2223C3.12797 25.2365 2.87222 25.137 2.64488 24.9523C2.41755 24.7676 2.31809 24.4977 2.30388 24.1709L2.28967 23.361L4.49198 23.3326ZM2.74434 23.8157V24.1567C2.74434 24.3414 2.81538 24.4977 2.94326 24.6113C3.07114 24.725 3.24164 24.7676 3.42635 24.7676C3.61106 24.7676 3.76735 24.7108 3.89523 24.5971C4.0231 24.4835 4.07994 24.3414 4.07994 24.1425V23.8015L2.74434 23.8157Z" fill="white"/>
<path d="M45.3129 23.9293L45.3271 23.6167L45.6965 23.6309L45.6539 24.725L45.2844 24.7108L45.2987 24.3982L43.8494 24.3414L43.8352 24.6255L43.48 24.6113L43.5226 23.5741L43.892 23.5883L43.8778 23.8725L45.3129 23.9293Z" fill="white"/>
<path d="M2.90066 26.9699L2.81541 26.0605L2.43179 25.9327L2.38916 25.4496H2.44599L4.67672 26.2453L4.69093 26.4584L2.65912 27.6661H2.60229L2.55966 27.183L2.90066 26.9699ZM3.9663 26.4016L3.21325 26.1742L3.27008 26.771L3.9663 26.4016Z" fill="white"/>
<path d="M44.8582 26.7284L44.8866 26.2879C44.986 26.2879 45.0571 26.2453 45.1139 26.1743C45.1708 26.089 45.1992 25.9895 45.2134 25.8759C45.2276 25.5917 45.1565 25.4496 44.9718 25.4354C44.9292 25.4354 44.8866 25.4354 44.844 25.4638C44.8013 25.478 44.7729 25.5065 44.7587 25.5349C44.7445 25.5633 44.7161 25.5917 44.7019 25.6485C44.6877 25.6912 44.6735 25.7338 44.6735 25.7764C44.6735 25.8048 44.6593 25.8475 44.645 25.9043C44.5598 26.43 44.3325 26.6858 43.963 26.6573C43.7357 26.6431 43.5652 26.5437 43.4657 26.3874C43.3663 26.2169 43.3237 26.018 43.3379 25.7764C43.3521 25.6627 43.3663 25.5633 43.3947 25.478C43.4231 25.3786 43.4657 25.2933 43.5226 25.2223C43.5794 25.1512 43.6505 25.0802 43.7499 25.0376C43.8352 24.995 43.9488 24.9807 44.0625 24.995L44.0341 25.4354C43.9488 25.4354 43.8778 25.478 43.8352 25.5491C43.7925 25.6201 43.7641 25.7054 43.7499 25.8048C43.7357 25.9043 43.7641 25.9895 43.8067 26.0748C43.8494 26.1458 43.9062 26.1885 43.9915 26.2027C44.0767 26.2027 44.1477 26.1743 44.1904 26.1032C44.233 26.0322 44.2614 25.9327 44.2898 25.8048C44.3182 25.677 44.3325 25.5633 44.3609 25.478C44.3893 25.3928 44.4319 25.3075 44.4745 25.2223C44.5314 25.137 44.6024 25.0802 44.6877 25.0376C44.7729 24.995 44.8866 24.9807 45.0003 24.995C45.1281 25.0092 45.2276 25.0376 45.3128 25.0944C45.3981 25.1512 45.4691 25.2223 45.5118 25.3075C45.5544 25.3928 45.5828 25.4922 45.597 25.5917C45.6112 25.6912 45.6254 25.8048 45.6112 25.9185C45.597 26.16 45.5118 26.359 45.3839 26.5295C45.256 26.6715 45.0855 26.7426 44.8582 26.7284Z" fill="white"/>
<path d="M3.62531 28.405L4.36415 28.5044L5.1172 28.6465L5.21665 29.1296L5.14561 29.1438L2.85805 28.6607L2.81543 28.476L4.71936 27.1262L4.7904 27.112L4.88986 27.5951L4.26469 28.0213L3.62531 28.405Z" fill="white"/>
<path d="M45.0003 27.524L44.8156 28.4192L45.1282 28.6607L45.0287 29.1438L44.9719 29.1296L43.0822 27.6945L43.1248 27.4814L45.4265 26.9557L45.4834 26.9699L45.3839 27.4388L45.0003 27.524ZM43.8068 27.7372L44.4462 28.1776L44.574 27.5809L43.8068 27.7372Z" fill="white"/>
<path d="M5.45826 29.7832L3.75325 30.2805L4.009 31.1614L3.61117 31.2751L3.22754 29.9537L5.33039 29.3427L5.45826 29.7832Z" fill="white"/>
<path d="M4.61979 32.6675L4.23616 31.8434H3.83832L3.6394 31.4029L3.69624 31.3745L6.06905 31.3887L6.1543 31.5876L4.61979 33.3921L4.56295 33.4205L4.36403 32.9801L4.61979 32.6675ZM5.44388 31.7866L4.66241 31.815L4.91816 32.3691L5.44388 31.7866Z" fill="white"/>
<path d="M43.5226 30.1384L42.8122 28.9875L42.869 28.8312L44.9576 29.5132L44.8155 29.9537L43.6931 29.5843L44.1762 30.3231L44.162 30.38L43.3379 30.6925L44.4603 31.062L44.3183 31.5024L42.2296 30.8204L42.2864 30.6499L43.5226 30.1384Z" fill="white"/>
<path d="M6.41014 33.0653L6.14018 32.5538L6.49539 32.3691L7.24844 33.8042L6.89323 33.9889L6.62327 33.4774L5.04613 34.3015L4.83301 33.9036L6.41014 33.0653Z" fill="white"/>
<path d="M43.2383 31.9713L44.105 31.8434L44.1618 31.8718L43.9487 32.3265L43.0962 32.4118L42.9257 32.767L43.5793 33.0796L43.3804 33.5058L41.4054 32.5539L41.8174 31.7156C41.9169 31.5024 42.0732 31.3603 42.2579 31.3035C42.4568 31.2467 42.6415 31.2609 42.8262 31.3461C42.9541 31.403 43.0536 31.4882 43.1246 31.6019C43.1957 31.7156 43.2241 31.8434 43.2383 31.9713ZM42.5705 32.6107L42.7694 32.1844C42.812 32.0992 42.812 32.0139 42.7836 31.9287C42.7552 31.8434 42.6842 31.7866 42.5989 31.744C42.5137 31.7013 42.4284 31.7013 42.3432 31.7156C42.2579 31.744 42.2011 31.8008 42.1584 31.8861L41.9595 32.3123L42.5705 32.6107Z" fill="white"/>
<path d="M7.67458 35.1398L7.34778 34.6567L7.68878 34.4294L8.59812 35.7649L8.25712 35.9923L7.93033 35.5092L6.45265 36.5038L6.1969 36.1344L7.67458 35.1398Z" fill="white"/>
<path d="M42.6131 34.1736L42.1442 34.9551L42.3716 35.2818L42.1158 35.7081L42.059 35.6797L40.7234 33.7189L40.8371 33.5342L43.1957 33.7615L43.2525 33.79L43.0109 34.202L42.6131 34.1736ZM41.4196 33.9889L41.8885 34.614L42.2011 34.0883L41.4196 33.9889Z" fill="white"/>
<path d="M39.9563 35.0971L40.4678 35.1256L40.3541 35.2818L39.7858 35.3387L39.9563 35.0971Z" fill="white"/>
<path d="M7.74565 37.5552L7.94457 37.7967L7.6604 38.0241L6.97839 37.1716L7.26256 36.9442L7.46148 37.1858L8.59815 36.2764L8.42765 36.0491L8.71182 35.8218L9.36541 36.6317L9.08124 36.859L8.91074 36.6317L7.74565 37.5552Z" fill="white"/>
<path d="M10.1185 38.3793C10.0617 38.4361 9.99067 38.4787 9.91962 38.493C9.83437 38.5214 9.76333 38.5214 9.67808 38.493C9.76333 38.7061 9.72071 38.8908 9.5502 39.0613C9.40812 39.2034 9.25183 39.2602 9.08133 39.2602C8.91082 39.2602 8.75453 39.175 8.59824 39.0187L7.88782 38.294L9.45074 36.7595L10.1043 37.4273C10.2464 37.5694 10.3175 37.7257 10.3317 37.9104C10.3317 38.0809 10.2606 38.2372 10.1185 38.3793ZM9.2092 38.3509L8.8682 37.9957L8.51299 38.3509L8.88241 38.7203C8.93924 38.7771 8.99608 38.8055 9.05291 38.8055C9.10974 38.8055 9.18078 38.7913 9.23762 38.7345C9.30866 38.6634 9.33708 38.5924 9.32287 38.5214C9.29445 38.4645 9.26604 38.4077 9.2092 38.3509ZM9.79175 37.6973L9.49337 37.3847L9.13816 37.7257L9.43654 38.0383C9.49337 38.0951 9.5502 38.1235 9.60704 38.1235C9.66387 38.1235 9.72071 38.1093 9.77754 38.0525C9.83437 37.9957 9.86279 37.9388 9.86279 37.8678C9.877 37.8109 9.84858 37.7541 9.79175 37.6973Z" fill="white"/>
<path d="M39.1606 37.7115C38.9901 37.5552 38.8622 37.3847 38.8054 37.1858C38.7486 36.9869 38.7344 36.8021 38.777 36.6174C38.8196 36.4327 38.9049 36.2764 39.0327 36.1201C39.189 35.9354 39.3737 35.8218 39.5869 35.7649C39.8 35.7081 40.0131 35.7365 40.2262 35.836L39.9279 36.177C39.7147 36.1201 39.5158 36.1912 39.3595 36.3901C39.2317 36.5464 39.1748 36.7027 39.2032 36.8732C39.2317 37.0437 39.3169 37.2 39.4732 37.3279C39.6295 37.4699 39.8 37.5268 39.9705 37.5268C40.141 37.5268 40.2973 37.4415 40.4252 37.2994C40.5388 37.1716 40.5957 37.0579 40.6099 36.9442C40.6241 36.8306 40.5957 36.7027 40.5104 36.5606L40.1126 37.0437L39.8142 36.7879L40.482 36.0065C40.6809 36.1628 40.823 36.3048 40.9082 36.4611C41.0219 36.6601 41.0503 36.859 41.0219 37.0579C40.9793 37.2568 40.894 37.4415 40.752 37.612C40.553 37.8394 40.2973 37.9814 40.0131 38.0099C39.7289 38.0383 39.4164 37.9388 39.1606 37.7115Z" fill="white"/>
<path d="M11.6529 39.7291C11.5961 39.7859 11.5392 39.8427 11.454 39.8712C11.383 39.8996 11.2977 39.9138 11.2267 39.8996C11.3261 40.0985 11.2977 40.2974 11.1414 40.4679C11.0135 40.61 10.8572 40.6952 10.701 40.7095C10.5305 40.7237 10.3599 40.6526 10.2037 40.5105L9.4364 39.8427L10.8572 38.1804L11.5535 38.7913C11.7098 38.9192 11.795 39.0755 11.8092 39.246C11.8376 39.4165 11.7808 39.5728 11.6529 39.7291ZM10.7436 39.7717L10.3742 39.4449L10.0474 39.8285L10.4452 40.1695C10.502 40.2264 10.5731 40.2406 10.6299 40.2406C10.6867 40.2406 10.7436 40.2122 10.8004 40.1553C10.8715 40.0843 10.8857 40.0132 10.8715 39.928C10.843 39.8854 10.8146 39.8285 10.7436 39.7717ZM11.2693 39.0613L10.9425 38.7771L10.6157 39.1465L10.9425 39.4307C10.9993 39.4875 11.0704 39.5017 11.1272 39.5017C11.184 39.5017 11.2409 39.4733 11.2977 39.4165C11.3545 39.3597 11.3687 39.2886 11.3687 39.2318C11.3687 39.1749 11.3261 39.1181 11.2693 39.0613Z" fill="white"/>
<path d="M38.1234 38.6635L38.0808 37.2995L38.2086 37.1858L39.6863 38.8056L39.3453 39.1181L38.5496 38.2372L38.6065 39.1181L38.5496 39.175L37.6829 39.0329L38.4786 39.9138L38.1376 40.2264L36.6599 38.6066L36.7878 38.493L38.1234 38.6635Z" fill="white"/>
<path d="M11.852 41.292L12.1077 41.4767L11.8946 41.7751L11.0137 41.1499L11.2268 40.8516L11.4826 41.0363L12.3208 39.857L12.0935 39.6865L12.3066 39.3881L13.1591 39.9848L12.946 40.2832L12.7187 40.1127L11.852 41.292Z" fill="white"/>
<path d="M37.1571 40.539L36.4325 41.0931L36.5177 41.4767L36.1341 41.7751L36.0915 41.7325L35.58 39.4165L35.7505 39.2886L37.8533 40.3685L37.8959 40.4111L37.5123 40.7095L37.1571 40.539ZM36.1199 39.928L36.3188 40.6811L36.8019 40.3116L36.1199 39.928Z" fill="white"/>
<path d="M13.4859 41.221L13.9121 40.9652L14.3668 40.7095L14.7931 40.9652L14.7646 41.0221L13.4859 41.7041L13.0454 42.4571L12.6476 42.2156L13.088 41.4625L13.0596 40.0275L13.088 39.9706L13.5143 40.2264V40.7663L13.4859 41.221Z" fill="white"/>
<path d="M34.756 40.0701L35.4807 41.3346C35.5943 41.5335 35.6227 41.7325 35.5517 41.9314C35.4807 42.1303 35.3386 42.2866 35.1397 42.4003C34.9407 42.5139 34.7418 42.5565 34.5287 42.5139C34.3298 42.4713 34.1735 42.3576 34.0456 42.1587L33.9177 41.9314L34.3014 41.7182L34.4292 41.9456C34.4861 42.045 34.5571 42.1019 34.6566 42.1161C34.7418 42.1303 34.8413 42.1161 34.9407 42.0592C35.0402 42.0024 35.097 41.9314 35.1254 41.8461C35.1539 41.7609 35.1397 41.6756 35.0828 41.5762L34.5571 40.6668L34.2161 40.8657L34.0172 40.5105L34.756 40.0701Z" fill="white"/>
<path d="M14.9067 42.7697L15.3188 42.9402C15.2904 43.0255 15.3046 43.1107 15.3614 43.196C15.4182 43.267 15.5035 43.338 15.6172 43.3807C15.8729 43.4943 16.0434 43.4517 16.1144 43.2954C16.1287 43.2528 16.1429 43.2102 16.1287 43.1675C16.1287 43.1249 16.1144 43.0965 16.086 43.0681C16.0718 43.0397 16.0434 43.0112 16.0008 42.9828C15.9582 42.9544 15.9297 42.926 15.9013 42.9118C15.8729 42.8976 15.8303 42.8692 15.7877 42.855C15.3188 42.6134 15.1483 42.315 15.2904 41.974C15.3756 41.7609 15.5177 41.633 15.7024 41.5904C15.8871 41.5478 16.1002 41.562 16.3134 41.6614C16.4128 41.7041 16.4981 41.7609 16.5833 41.8177C16.6686 41.8746 16.7254 41.9456 16.7822 42.0167C16.8391 42.0877 16.8675 42.1872 16.8817 42.2866C16.8959 42.3861 16.8675 42.4855 16.8249 42.5992L16.427 42.4287C16.4412 42.3435 16.427 42.2724 16.3844 42.2014C16.3276 42.1303 16.2565 42.0735 16.1713 42.0451C16.086 42.0025 15.9866 41.9882 15.9013 42.0167C15.8161 42.0451 15.7592 42.0735 15.7166 42.1587C15.6882 42.244 15.6882 42.315 15.745 42.3719C15.8019 42.4287 15.8871 42.4997 16.0008 42.5566C16.1144 42.6134 16.2139 42.6845 16.285 42.7271C16.356 42.7839 16.427 42.8407 16.4981 42.926C16.5549 42.997 16.5975 43.0823 16.5975 43.1818C16.5975 43.2812 16.5833 43.3807 16.5407 43.4943C16.4981 43.608 16.427 43.6933 16.3418 43.7643C16.2565 43.8353 16.1713 43.8638 16.0718 43.878C15.9724 43.8922 15.8729 43.8922 15.7734 43.878C15.674 43.8638 15.5745 43.8353 15.4609 43.7927C15.2335 43.6933 15.063 43.5654 14.9494 43.3807C14.8357 43.1675 14.8215 42.9686 14.9067 42.7697Z" fill="white"/>
<path d="M33.0651 43.0681L33.3493 42.9402L33.5056 43.2812L32.5252 43.7501L32.3689 43.4091L32.6531 43.2812L32.0279 41.974L31.7721 42.1019L31.6158 41.7751L32.5536 41.3347L32.7099 41.6614L32.4541 41.7893L33.0651 43.0681Z" fill="white"/>
<path d="M18.1178 44.4747C17.9189 44.5457 17.7058 44.5457 17.4642 44.4747C17.2369 44.4036 17.0522 44.2758 16.9385 44.0911C16.8248 43.9064 16.7964 43.7074 16.8675 43.4801L17.3221 42.0877L17.7626 42.2298L17.3079 43.608C17.2795 43.7216 17.2795 43.8069 17.3363 43.8921C17.3932 43.9774 17.4784 44.0342 17.5779 44.0626C17.6916 44.0911 17.791 44.1053 17.8763 44.0626C17.9757 44.0342 18.0326 43.9632 18.061 43.8495L18.5156 42.4713L18.9561 42.6134L18.5014 44.0058C18.4588 44.2616 18.3167 44.4036 18.1178 44.4747Z" fill="white"/>
<path d="M30.3655 43.8353L30.7918 43.6932C30.8202 43.7785 30.8912 43.8353 30.9907 43.8495C31.0901 43.8637 31.1896 43.8495 31.3033 43.8211C31.5732 43.7359 31.6727 43.5938 31.6016 43.4233C31.5874 43.3807 31.559 43.338 31.5306 43.3096C31.5022 43.2812 31.4596 43.267 31.4311 43.2528C31.4027 43.2386 31.3601 43.2386 31.3033 43.2528C31.2464 43.2528 31.2038 43.267 31.1754 43.267C31.147 43.267 31.1043 43.2812 31.0475 43.2954C30.536 43.4233 30.2092 43.3238 30.0955 42.9686C30.0245 42.7555 30.0387 42.5708 30.1524 42.4003C30.266 42.244 30.4365 42.1161 30.6497 42.0451C30.7491 42.0024 30.8486 41.9882 30.9481 41.974C31.0475 41.9598 31.147 41.974 31.2322 41.9882C31.3317 42.0024 31.4027 42.0593 31.488 42.1161C31.559 42.1872 31.6158 42.2724 31.6585 42.3861L31.2464 42.5282C31.2038 42.4571 31.147 42.4145 31.0617 42.3861C30.9765 42.3719 30.8912 42.3861 30.7918 42.4145C30.6923 42.4429 30.6213 42.4997 30.5644 42.5708C30.5076 42.6418 30.4934 42.7129 30.5218 42.7981C30.5502 42.8834 30.6071 42.926 30.6781 42.9402C30.7633 42.9544 30.8628 42.9402 30.9907 42.9118C31.1186 42.8834 31.2322 42.8549 31.3175 42.8549C31.4027 42.8549 31.5022 42.8407 31.6016 42.8549C31.7011 42.8692 31.7863 42.9118 31.8574 42.9686C31.9284 43.0397 31.9853 43.1249 32.0279 43.2386C32.0705 43.3522 32.0847 43.4659 32.0563 43.5654C32.0421 43.6648 31.9995 43.7643 31.9284 43.8353C31.8574 43.9064 31.7864 43.9774 31.7011 44.0342C31.6158 44.0911 31.5164 44.1337 31.4169 44.1763C31.1896 44.2616 30.9765 44.2616 30.7633 44.219C30.5786 44.1763 30.4508 44.0485 30.3655 43.8353Z" fill="white"/>
<path d="M18.9562 43.7501C18.9988 43.5228 19.0983 43.338 19.2403 43.196C19.3824 43.0539 19.5387 42.9544 19.7234 42.8976C19.9081 42.855 20.0928 42.8407 20.2776 42.8834C20.5049 42.926 20.7038 43.0397 20.8601 43.196C21.0164 43.3522 21.1016 43.5512 21.1016 43.7927L20.647 43.6933C20.5901 43.4801 20.4339 43.338 20.1923 43.2954C19.9934 43.2528 19.8371 43.2812 19.695 43.3949C19.5529 43.4943 19.4677 43.6506 19.4251 43.8495C19.3824 44.0485 19.3966 44.2332 19.4961 44.3753C19.5813 44.5316 19.7234 44.6168 19.9081 44.6594C20.0644 44.6878 20.2065 44.6878 20.3202 44.6452C20.4339 44.6026 20.5191 44.5173 20.6044 44.3753L20.0218 44.2474L20.1071 43.8638L21.1159 44.0769C21.0732 44.3184 21.0164 44.5173 20.9169 44.6594C20.7891 44.8441 20.6328 44.972 20.4481 45.0431C20.2634 45.1141 20.0502 45.1141 19.8371 45.0715C19.5387 45.0146 19.2972 44.8583 19.1267 44.6168C18.9278 44.3753 18.8851 44.0769 18.9562 43.7501Z" fill="white"/>
<path d="M29.6976 44.3184L28.8167 44.5457L28.7457 44.9436L28.2768 45.0714L28.2626 45.0146L28.703 42.6844L28.9162 42.6276L30.4223 44.4605L30.4365 44.5173L29.9676 44.6452L29.6976 44.3184ZM28.973 43.3522L28.8593 44.1337L29.4419 43.9774L28.973 43.3522Z" fill="white"/>
<path d="M21.6558 43.1959L21.8689 43.6648L21.6842 43.6364L21.3716 43.1533L21.6558 43.1959Z" fill="white"/>
<path d="M26.9555 43.4659L26.3872 43.5796L26.3162 43.1817L27.8933 42.8691L27.9643 43.267L27.396 43.3806L27.737 45.1283L27.2965 45.2135L26.9555 43.4659Z" fill="white"/>
<path d="M23.9006 45.2846C23.7301 45.4125 23.517 45.4693 23.2755 45.4693C23.0339 45.4551 22.8208 45.384 22.6645 45.242C22.494 45.0999 22.423 44.9152 22.423 44.6736L22.4656 43.2101L22.9345 43.2244L22.8919 44.6736C22.8919 44.7873 22.9203 44.8725 23.0055 44.9436C23.0766 45.0146 23.176 45.043 23.2897 45.043C23.4034 45.043 23.5028 45.0146 23.5739 44.9578C23.6591 44.901 23.6875 44.8157 23.7017 44.702L23.7444 43.2528L24.2132 43.267L24.1706 44.7304C24.1706 44.972 24.0711 45.1567 23.9006 45.2846Z" fill="white"/>
<path d="M25.9751 44.5742L26.5009 45.2704V45.3414L26.0036 45.3699L25.5205 44.6736L25.1368 44.6878L25.1795 45.4125L24.7106 45.4409L24.5969 43.2528L25.5347 43.2102C25.7762 43.196 25.9609 43.267 26.1172 43.3949C26.2593 43.537 26.3446 43.7075 26.3446 43.9064C26.3588 44.0485 26.3304 44.1763 26.2593 44.29C26.1883 44.4179 26.103 44.5031 25.9751 44.5742ZM25.1084 44.3042L25.5773 44.2758C25.6768 44.2758 25.7478 44.2332 25.8046 44.1621C25.8615 44.0911 25.8899 44.0058 25.8757 43.9206C25.8757 43.8211 25.8331 43.7501 25.7762 43.6933C25.7194 43.6364 25.6341 43.608 25.5347 43.608L25.0658 43.6364L25.1084 44.3042Z" fill="white"/>
<path fill-rule="evenodd" clip-rule="evenodd" d="M2.82268 19.0359H3.40669L3.80993 18.6188L4.22708 19.0359H4.81109V19.606L5.21433 20.0232L4.81109 20.4264V21.0104H4.22708L3.80993 21.4276L3.40669 21.0104H2.82268V20.4264L2.41943 20.0232L2.82268 19.606V19.0359Z" fill="white"/>
<path fill-rule="evenodd" clip-rule="evenodd" d="M42.9803 19.0359H43.5504L43.9675 18.6188L44.3708 19.0359H44.9548V19.606L45.3719 20.0232L44.9548 20.4264V21.0104H44.3708L43.9675 21.4276L43.5504 21.0104H42.9803V20.4264L42.5631 20.0232L42.9803 19.606V19.0359Z" fill="white"/>
</g>
<path d="M57.896 32V15.08H60.464L66.464 26.144L72.44 15.08H74.96V32H72.176V20.6L67.328 29.432H65.528L60.68 20.648V32H57.896ZM84.1799 32.24C82.8519 32.24 81.7079 31.992 80.7479 31.496C79.7879 31 79.0439 30.296 78.5159 29.384C78.0039 28.472 77.7479 27.392 77.7479 26.144C77.7479 24.928 77.9959 23.864 78.4919 22.952C79.0039 22.04 79.6999 21.328 80.5799 20.816C81.4759 20.288 82.4919 20.024 83.6279 20.024C85.2919 20.024 86.6039 20.552 87.5639 21.608C88.5399 22.664 89.0279 24.104 89.0279 25.928V26.816H80.6279C80.8519 28.912 82.0519 29.96 84.2279 29.96C84.8839 29.96 85.5399 29.864 86.1959 29.672C86.8519 29.464 87.4519 29.144 87.9959 28.712L88.8359 30.728C88.2759 31.192 87.5719 31.56 86.7239 31.832C85.8759 32.104 85.0279 32.24 84.1799 32.24ZM83.7479 22.064C82.8679 22.064 82.1559 22.336 81.6119 22.88C81.0679 23.424 80.7399 24.16 80.6279 25.088H86.5319C86.4679 24.112 86.1959 23.368 85.7159 22.856C85.2519 22.328 84.5959 22.064 83.7479 22.064ZM95.9158 32.24C94.8918 32.24 93.9878 31.992 93.2038 31.496C92.4358 31 91.8358 30.296 91.4038 29.384C90.9718 28.456 90.7558 27.368 90.7558 26.12C90.7558 24.856 90.9718 23.776 91.4038 22.88C91.8358 21.968 92.4358 21.264 93.2038 20.768C93.9878 20.272 94.8918 20.024 95.9158 20.024C96.7478 20.024 97.4998 20.208 98.1718 20.576C98.8438 20.944 99.3478 21.432 99.6838 22.04V15.08H102.684V32H99.7558V30.056C99.4358 30.728 98.9318 31.264 98.2438 31.664C97.5558 32.048 96.7798 32.24 95.9158 32.24ZM96.7558 29.96C97.6518 29.96 98.3718 29.64 98.9158 29C99.4598 28.344 99.7318 27.384 99.7318 26.12C99.7318 24.84 99.4598 23.888 98.9158 23.264C98.3718 22.624 97.6518 22.304 96.7558 22.304C95.8598 22.304 95.1398 22.624 94.5958 23.264C94.0518 23.888 93.7798 24.84 93.7798 26.12C93.7798 27.384 94.0518 28.344 94.5958 29C95.1398 29.64 95.8598 29.96 96.7558 29.96ZM106.082 32V15.08H113.474C115.25 15.08 116.626 15.472 117.602 16.256C118.578 17.024 119.066 18.096 119.066 19.472C119.066 20.384 118.834 21.168 118.37 21.824C117.906 22.48 117.266 22.96 116.45 23.264C117.41 23.536 118.154 24.016 118.682 24.704C119.226 25.376 119.498 26.232 119.498 27.272C119.498 28.776 118.986 29.944 117.962 30.776C116.954 31.592 115.546 32 113.738 32H106.082ZM109.034 22.256H112.946C115.042 22.256 116.09 21.448 116.09 19.832C116.09 18.216 115.042 17.408 112.946 17.408H109.034V22.256ZM109.034 29.672H113.354C115.466 29.672 116.522 28.824 116.522 27.128C116.522 25.432 115.466 24.584 113.354 24.584H109.034V29.672ZM126.182 32.24C125.334 32.24 124.574 32.08 123.902 31.76C123.246 31.424 122.726 30.976 122.342 30.416C121.974 29.856 121.79 29.224 121.79 28.52C121.79 27.656 122.014 26.976 122.462 26.48C122.91 25.968 123.638 25.6 124.646 25.376C125.654 25.152 127.006 25.04 128.702 25.04H129.542V24.536C129.542 23.736 129.366 23.16 129.014 22.808C128.662 22.456 128.07 22.28 127.238 22.28C126.582 22.28 125.91 22.384 125.222 22.592C124.534 22.784 123.838 23.088 123.134 23.504L122.27 21.464C122.686 21.176 123.174 20.928 123.734 20.72C124.31 20.496 124.91 20.328 125.534 20.216C126.174 20.088 126.774 20.024 127.334 20.024C129.046 20.024 130.318 20.424 131.15 21.224C131.982 22.008 132.398 23.232 132.398 24.896V32H129.59V30.128C129.318 30.784 128.886 31.304 128.294 31.688C127.702 32.056 126.998 32.24 126.182 32.24ZM126.806 30.176C127.59 30.176 128.238 29.904 128.75 29.36C129.278 28.816 129.542 28.128 129.542 27.296V26.768H128.726C127.222 26.768 126.174 26.888 125.582 27.128C125.006 27.352 124.718 27.768 124.718 28.376C124.718 28.904 124.902 29.336 125.27 29.672C125.638 30.008 126.15 30.176 126.806 30.176ZM135.443 32V20.264H138.371V22.088C138.771 21.416 139.307 20.904 139.979 20.552C140.667 20.2 141.435 20.024 142.283 20.024C145.051 20.024 146.435 21.632 146.435 24.848V32H143.435V24.992C143.435 24.08 143.259 23.416 142.907 23C142.571 22.584 142.043 22.376 141.323 22.376C140.443 22.376 139.739 22.656 139.211 23.216C138.699 23.76 138.443 24.488 138.443 25.4V32H135.443ZM149.482 32V15.08H152.482V25.256H152.53L157.258 20.264H160.882L155.554 25.88L161.218 32H157.546L152.53 26.768H152.482V32H149.482Z" fill="#222222"/>
<defs>
<clipPath id="clip0_4_346">
<rect width="48" height="48" fill="white"/>
</clipPath>
</defs>
</svg>
